<!DOCTYPE svg PUBLIC "-//W3C//DTD SVG 1.1//EN" "http://www.w3.org/Graphics/SVG/1.1/DTD/svg11.dtd">
<!-- Uploaded to: SVG Repo, www.svgrepo.com, Transformed by: SVG Repo Mixer Tools -->
<svg fill="#3649d3" height="800px" width="800px" version="1.1" id="Layer_1" xmlns="http://www.w3.org/2000/svg" xmlns:xlink="http://www.w3.org/1999/xlink" viewBox="0 0 512.011 512.011" xml:space="preserve" stroke="#3649d3">
<g id="SVGRepo_bgCarrier" stroke-width="0"/>
<g id="SVGRepo_tracerCarrier" stroke-linecap="round" stroke-linejoin="round"/>
<g id="SVGRepo_iconCarrier"> <g> <g> <g> <path d="M149.333,0.005C67.008,0.005,0,66.992,0,149.339c0,75.072,55.765,137.216,128,147.627v193.707 c0,11.776,9.536,21.333,21.333,21.333c11.797,0,21.333-9.557,21.333-21.333V296.965c72.235-10.411,128-72.555,128-147.627 C298.667,66.992,231.659,0.005,149.333,0.005z"/> <path d="M507.063,413.017l-106.667-128c-0.427-0.512-1.045-0.747-1.515-1.216c-0.469-0.469-0.704-1.088-1.216-1.515 c-0.619-0.512-1.387-0.683-2.069-1.109c-1.216-0.811-2.411-1.493-3.733-2.027c-1.28-0.512-2.517-0.853-3.861-1.109 c-1.344-0.256-2.645-0.405-4.011-0.405c-1.365,0-2.667,0.149-4.011,0.405c-1.323,0.256-2.581,0.597-3.84,1.109 c-1.344,0.533-2.539,1.216-3.755,2.027c-0.661,0.448-1.429,0.597-2.048,1.109c-0.512,0.427-0.747,1.045-1.216,1.515 c-0.469,0.469-1.088,0.704-1.515,1.216l-106.667,128c-7.552,9.045-6.315,22.507,2.731,30.037 c3.989,3.328,8.832,4.949,13.632,4.949c6.144,0,12.203-2.603,16.427-7.68l26.261-31.509v81.856 c0,11.776,9.557,21.333,21.333,21.333c11.797,0,21.333-9.557,21.333-21.333v-128c0-1.451-0.533-2.709-0.811-4.075l22.144-26.581 l22.165,26.581c-0.277,1.365-0.832,2.624-0.832,4.075v128c0,11.776,9.557,21.333,21.333,21.333 c11.797,0,21.333-9.557,21.333-21.333v-81.856l26.283,31.509c4.224,5.077,10.283,7.68,16.405,7.68 c4.821,0,9.664-1.621,13.653-4.949C513.378,435.523,514.615,422.062,507.063,413.017z"/> </g> </g> </g> </g>
</svg>